<svg width="399" height="478" viewBox="0 0 399 478" fill="none" xmlns="http://www.w3.org/2000/svg">
<path d="M31.2672 1.46686C19.5339 3.33352 7.53385 12.8002 2.86719 23.7335C1.00052 28.1335 0.867188 51.0669 0.867188 239.067C1.00052 472.8 0.200521 454.133 10.0672 464.533C12.7339 467.333 18.6005 471.333 23.0005 473.467L31.0005 477.333H123.667L216.334 477.2L208.334 473.067C200.334 468.933 187.134 459.467 183.801 455.467C182.201 453.6 174.201 453.333 107.401 453.333H32.7339L28.8672 449.467L25.0005 445.6V239.6V33.6002L28.4672 29.4669L31.9339 25.3335H147.134H262.334V62.4002C262.334 92.6669 262.734 100.667 264.467 105.734C266.601 112 275.001 122.8 280.201 125.734C282.201 126.8 295.134 127.467 324.201 128L365.534 128.667L365.801 176C366.067 202 366.201 224 366.334 224.8C366.334 225.6 371.401 230.534 377.667 235.867L389.001 245.467V177.067V108.534L354.067 74.0002C334.734 54.9335 314.201 34.5335 308.334 28.6669C302.467 22.8002 293.667 14.1335 288.734 9.46686L279.801 1.06686L158.734 0.666858C92.2005 0.533525 34.8672 0.933524 31.2672 1.46686ZM318.601 73.3335L349.401 104H320.734C293.267 104 291.934 103.867 289.534 101.2C287.267 98.6669 287.001 95.8669 286.734 70.5335C286.601 55.2002 286.734 42.6669 287.134 42.6669C287.401 42.6669 301.534 56.4002 318.601 73.3335Z" fill="black"/>
<path d="M73.8013 141.6C71.8013 143.333 69.9346 146.533 69.5346 148.8C68.868 152.267 69.5346 153.867 72.7346 157.467L76.7346 162H154.735H232.735L236.201 158.8C238.068 157.067 239.668 154.133 239.935 152.133C240.601 147.867 237.801 141.867 234.468 140C232.735 139.2 205.001 138.667 154.468 138.667H77.1346L73.8013 141.6Z" fill="black"/>
<path d="M287.001 198L283.668 201.2V283.467V365.6L280.734 364.667C267.001 360.4 263.668 359.867 254.334 360.4C235.268 361.733 211.534 372.933 199.268 386.667C187.668 399.6 183.801 419.733 190.334 434.4C201.134 459.333 238.201 467.6 269.134 452C279.534 446.667 292.068 436 297.668 427.6C300.468 423.467 303.401 416.4 305.001 410.133C307.534 400.133 307.668 395.467 307.668 329.867V260.133L325.401 268.933C349.268 280.8 355.801 285.2 363.001 294.267C371.134 304.667 374.868 316.667 374.068 329.733C373.268 341.333 371.001 346.267 361.534 356.267C354.068 364.133 352.868 367.6 356.468 371.2C363.001 377.867 381.134 366.133 389.268 350.267C404.068 320.8 400.334 283.333 380.334 260.533C372.468 251.467 363.001 244.267 346.201 235.067C329.534 225.733 317.668 216.933 310.734 208.533C300.734 196.4 298.734 194.667 294.334 194.667C291.668 194.667 289.001 195.867 287.001 198Z" fill="black"/>
<path d="M74.601 210.133C69.6677 212.667 67.401 218.667 69.401 224.4C72.0677 232.267 69.1343 232 154.468 232C227.001 232 232.868 231.867 235.534 229.6C242.468 224 241.001 212.267 233.001 209.467C229.934 208.4 206.201 208 153.801 208C87.9343 208 78.4677 208.267 74.601 210.133Z" fill="black"/>
<path d="M73.4012 280.667C68.8678 283.867 67.1345 290.934 69.6678 295.867C70.7345 298.134 72.8678 300.534 74.2012 301.334C78.0678 303.334 201.134 303.2 205.668 301.067C209.268 299.467 212.734 294.134 212.201 290.934C212.068 290.134 211.934 288.4 211.801 287.334C211.801 286.134 210.201 283.734 208.334 282L205.134 278.667H140.734C85.5345 278.667 75.8012 278.934 73.4012 280.667Z" fill="black"/>
<path d="M384.335 380.133C382.201 381.6 377.401 384.4 373.668 386.267C370.068 388.133 366.601 390.267 366.201 390.933C365.801 391.6 365.668 402.4 365.801 415.067C366.335 439.6 365.401 445.2 360.868 450.133C357.935 453.333 357.535 453.333 329.268 453.333H300.735L295.801 457.067C287.935 463.2 275.268 470.4 266.201 474L257.668 477.2L307.268 477.333C354.735 477.333 357.268 477.2 364.468 474.533C374.468 470.8 385.535 460.267 387.535 452.4C388.468 448.933 388.868 434.4 388.735 412.133L388.335 377.333L384.335 380.133Z" fill="black"/>
</svg>
