<svg width="1024" height="1024" viewBox="0 0 1024 1024" fill="none" xmlns="http://www.w3.org/2000/svg">
<path d="M491.52 202.752H530.432L571.392 208.896L612.352 221.184L645.12 237.568L671.744 253.952L694.272 272.384L718.848 296.96L741.376 327.68L759.808 360.448L774.144 397.312L784.384 444.416V468.992L794.624 473.088L811.008 487.424L821.248 503.808L825.344 516.096V600.064L817.152 622.592L800.768 641.024L780.288 651.264L743.424 659.456L722.944 696.32L710.656 710.656L708.608 737.28L698.368 749.568L686.08 753.664L671.744 751.616L663.552 749.568L643.072 763.904L608.256 780.288L565.248 792.576L544.768 796.672L536.576 811.008L522.24 819.2H499.712L487.424 811.008L479.232 798.72V794.624L458.752 792.576L421.888 782.336L389.12 768L362.496 751.616L356.352 749.568L346.112 753.664L329.728 751.616L319.488 743.424L315.392 735.232L313.344 712.704L292.864 684.032L280.576 659.456L245.76 651.264L221.184 638.976L206.848 620.544L198.656 598.016V518.144L206.848 495.616L225.28 475.136L235.52 468.992H239.616L241.664 434.176L249.856 399.36L262.144 366.592L282.624 327.68L303.104 301.056L321.536 280.576L344.064 260.096L374.784 239.616L407.552 223.232L444.416 210.944L473.088 204.8L491.52 202.752ZM483.328 237.568L444.416 245.76L413.696 258.048L389.12 270.336L360.448 290.816L339.968 309.248L321.536 331.776L303.104 360.448L286.72 395.264L276.48 432.128L274.432 458.752H311.296L319.488 466.944L321.536 471.04V643.072L315.392 653.312L307.2 661.504L309.248 671.744L327.68 698.368L331.776 700.416H352.256L362.496 708.608L366.592 714.752L368.64 731.136L389.12 745.472L413.696 757.76L450.56 770.048L471.04 774.144L481.28 772.096L489.472 759.808L499.712 753.664H522.24L534.528 761.856L542.72 774.144L563.2 772.096L593.92 763.904L626.688 749.568L651.264 735.232L655.36 731.136L659.456 710.656L671.744 700.416L696.32 698.368L714.752 671.744L716.8 661.504L704.512 647.168L702.464 643.072V471.04L706.56 462.848L712.704 458.752H749.568V442.368L739.328 399.36L722.944 362.496L708.608 339.968L692.224 319.488L673.792 299.008L638.976 272.384L606.208 256L579.584 245.76L538.624 237.568H483.328Z" fill="#57B2E0"/>
<path d="M387.072 327.68H595.968L628.736 362.496L659.456 395.264L661.504 399.36V655.36L655.36 667.648L645.12 675.84L602.112 677.888L595.968 692.224L589.824 710.656L583.68 716.8H571.392L563.2 708.608L559.104 681.984L555.008 684.032L548.864 710.656L542.72 716.8H528.384L522.24 706.56L514.048 677.888L503.808 675.84L489.472 694.272L487.424 696.32H473.088L456.704 677.888L387.072 675.84L376.832 667.648L372.736 659.456V342.016L380.928 331.776L387.072 327.68ZM401.408 352.256L397.312 356.352V649.216L399.36 651.264L464.896 653.312L483.328 655.36L501.76 638.976H512L528.384 653.312H538.624L542.72 649.216L544.768 620.544L552.96 612.352L565.248 614.4L569.344 620.544L571.392 651.264L573.44 655.36L583.68 653.312L585.728 651.264L591.872 598.016L595.968 593.92H610.304L614.4 600.064L620.544 647.168L622.592 651.264H632.832L634.88 649.216V413.696L632.832 411.648L583.68 409.6L575.488 399.36L573.44 352.256H401.408Z" fill="#57B2E0"/>
<path d="M428.032 403.456H530.432L552.96 421.888L579.584 446.464L595.968 460.8L608.256 479.232L612.352 493.568V520.192L604.16 540.672L591.872 555.008L581.632 561.152L571.392 559.104L575.488 550.912L585.728 534.528L587.776 528.384V501.76L577.536 483.328L561.152 471.04L540.672 462.848V569.344L530.432 589.824L514.048 604.16L493.568 612.352H464.896L446.464 600.064L438.272 585.728V563.2L448.512 546.816L464.896 532.48L479.232 526.336H509.952L518.144 528.384V428.032H428.032L425.984 425.984V405.504L428.032 403.456Z" fill="#56B2E0"/>
<path d="M428.032 460.8H499.712L503.808 462.848V485.376L499.712 487.424H428.032L425.984 485.376V462.848L428.032 460.8Z" fill="#59B2DF"/>
<path d="M425.984 405.504L436.224 409.6V407.552H456.704L450.56 411.648L448.512 423.936L518.144 425.984V428.032H428.032L425.984 425.984V405.504Z" fill="#4FACDB"/>
<path d="M577.536 548.864H583.68L589.824 550.912L585.728 559.104L573.44 561.152V552.96L577.536 548.864Z" fill="#57B1DF"/>
<path d="M495.616 753.664L497.664 759.808L493.568 768L483.328 774.144L481.28 768L489.472 757.76L495.616 753.664Z" fill="#5FB5E1"/>
<path d="M667.648 700.416V706.56L663.552 710.656L657.408 729.088H655.36V714.752L667.648 700.416Z" fill="#62B5E0"/>
<path d="M245.76 413.696L247.808 417.792L256 413.696L253.952 423.936L251.904 428.032H247.808L245.76 432.128L243.712 425.984L245.76 413.696Z" fill="#60B6E1"/>
</svg>
